<svg width="521" height="104" viewBox="0 0 521 104" fill="none" xmlns="http://www.w3.org/2000/svg">
<path d="M9.72 93.55C7.26 93.55 5.18267 92.894 3.488 91.582C1.79333 90.27 0.946 88.5207 0.946 86.334C0.946 85.186 1.24667 83.9287 1.848 82.562C2.39467 81.1953 3.26933 79.7467 4.472 78.216C6.71333 75.4827 9.31 73.214 12.262 71.41C15.1593 69.606 18.1387 67.9387 21.2 66.408C21.528 66.244 21.774 66.162 21.938 66.162C22.102 66.162 22.184 66.2167 22.184 66.326C22.184 66.7087 21.8013 67.1187 21.036 67.556C18.576 68.7587 16.526 69.9613 14.886 71.164C13.246 72.4213 11.7427 73.8153 10.376 75.346C9.00933 76.8767 7.47867 78.7627 5.784 81.004C4.8 82.316 4.08933 83.5187 3.652 84.612C3.21467 85.7053 2.996 86.6893 2.996 87.564C2.996 89.04 3.51533 90.1607 4.554 90.926C5.59267 91.746 6.90467 92.156 8.49 92.156C9.74733 92.156 11.114 91.8827 12.59 91.336C14.066 90.7893 15.5147 89.9693 16.936 88.876C20.3253 86.3067 22.922 83.218 24.726 79.61C26.53 76.0567 27.7873 72.2573 28.498 68.212C29.2087 64.112 29.564 60.0393 29.564 55.994C29.564 52.55 29.4 49.2427 29.072 46.072C28.744 42.9013 28.3613 40.004 27.924 37.38C27.5413 34.756 27.2133 32.5693 26.94 30.82C23.66 32.1867 20.626 33.854 17.838 35.822C17.6193 35.9313 17.4553 35.986 17.346 35.986C17.018 35.986 16.7447 35.7947 16.526 35.412C16.362 35.0293 16.28 34.6467 16.28 34.264C16.28 33.608 16.526 33.116 17.018 32.788C18.6033 31.804 20.1613 30.984 21.692 30.328C23.2773 29.6173 24.9173 29.0433 26.612 28.606C26.5573 27.95 26.8033 27.2667 27.35 26.556C27.8967 25.8453 28.4433 25.49 28.99 25.49C29.5913 25.49 29.9193 25.8727 29.974 26.638L30.138 27.868C31.2313 27.704 32.352 27.5947 33.5 27.54C34.648 27.4853 35.8233 27.458 37.026 27.458C37.846 27.458 38.666 27.458 39.486 27.458C40.306 27.458 41.126 27.5127 41.946 27.622C42.9847 27.7313 43.504 27.9773 43.504 28.36C43.504 28.5787 43.0667 28.688 42.192 28.688C41.5907 28.688 40.962 28.6607 40.306 28.606C39.65 28.5513 39.0213 28.524 38.42 28.524C35.7413 28.524 33.09 28.9067 30.466 29.672C31.0673 33.0613 31.5593 36.7513 31.942 40.742C32.3247 44.7327 32.516 48.8053 32.516 52.96C32.516 57.9347 32.106 62.8273 31.286 67.638C30.5207 72.4487 29.154 76.822 27.186 80.758C25.218 84.7487 22.4573 87.974 18.904 90.434C17.3733 91.4727 15.8153 92.238 14.23 92.73C12.6447 93.2767 11.1413 93.55 9.72 93.55Z" fill="black"/>
<path d="M106.753 84L90.3295 24.3636H92.3097L107.918 81.0881H108.151L123.293 24.3636H125.855L140.997 81.0881H141.23L156.838 24.3636H158.818L142.395 84H139.832L124.69 27.2756H124.457L109.315 84H106.753ZM170.43 84V24.3636H202.228V26.2273H172.293V53.25H200.481V55.1136H172.293V82.1364H203.043V84H170.43ZM233.924 84H218.316V24.3636H235.438C240.932 24.3636 245.63 25.5478 249.532 27.9162C253.454 30.2652 256.453 33.643 258.53 38.0497C260.627 42.4564 261.665 47.7562 261.646 53.9489C261.626 60.2969 260.52 65.7131 258.326 70.1974C256.152 74.6624 252.997 78.0791 248.862 80.4474C244.747 82.8158 239.767 84 233.924 84ZM220.18 82.1364H233.924C239.437 82.1364 244.126 81.0201 247.989 78.7876C251.852 76.5357 254.783 73.3035 256.783 69.0909C258.802 64.8783 259.802 59.831 259.782 53.9489C259.763 48.1444 258.792 43.1747 256.87 39.0398C254.968 34.9048 252.211 31.7405 248.6 29.5469C244.99 27.3338 240.602 26.2273 235.438 26.2273H220.18V82.1364ZM292.541 84H276.933V24.3636H294.056C299.549 24.3636 304.247 25.5478 308.149 27.9162C312.071 30.2652 315.07 33.643 317.147 38.0497C319.244 42.4564 320.282 47.7562 320.263 53.9489C320.244 60.2969 319.137 65.7131 316.943 70.1974C314.769 74.6624 311.615 78.0791 307.48 80.4474C303.364 82.8158 298.385 84 292.541 84ZM278.797 82.1364H292.541C298.055 82.1364 302.743 81.0201 306.606 78.7876C310.469 76.5357 313.401 73.3035 315.4 69.0909C317.419 64.8783 318.419 59.831 318.399 53.9489C318.38 48.1444 317.409 43.1747 315.487 39.0398C313.585 34.9048 310.828 31.7405 307.218 29.5469C303.607 27.3338 299.219 26.2273 294.056 26.2273H278.797V82.1364ZM337.414 24.3636V84H335.551V24.3636H337.414ZM400.778 24.3636V84H398.914L358.147 27.858H357.914V84H356.051V24.3636H357.914L398.681 80.5057H398.914V24.3636H400.778ZM461.674 43C461.324 40.9616 460.606 38.9136 459.519 36.8558C458.451 34.7786 457.024 32.8762 455.238 31.1484C453.472 29.4207 451.375 28.0327 448.949 26.9844C446.522 25.9361 443.775 25.4119 440.708 25.4119C436.146 25.4119 432.147 26.6155 428.711 29.0227C425.294 31.4105 422.634 34.7689 420.732 39.098C418.829 43.4077 417.878 48.4356 417.878 54.1818C417.878 59.8504 418.82 64.8492 420.703 69.1783C422.586 73.5073 425.255 76.8852 428.711 79.3118C432.166 81.7384 436.243 82.9517 440.941 82.9517C445.095 82.9517 448.783 81.9714 452.006 80.0107C455.229 78.0305 457.743 75.1963 459.548 71.5078C461.353 67.8 462.217 63.3447 462.14 58.142L462.955 58.8409H441.523V56.9773H464.003V58.8409C464.003 64.2765 463.013 68.9356 461.033 72.8182C459.053 76.6813 456.325 79.6515 452.85 81.7287C449.376 83.7865 445.406 84.8153 440.941 84.8153C435.893 84.8153 431.496 83.5341 427.75 80.9716C424.022 78.3897 421.13 74.7983 419.072 70.1974C417.034 65.5966 416.015 60.258 416.015 54.1818C416.015 49.6004 416.597 45.4363 417.762 41.6896C418.946 37.9235 420.625 34.6913 422.799 31.9929C424.993 29.2751 427.604 27.1882 430.632 25.7322C433.661 24.2763 437.019 23.5483 440.708 23.5483C444.202 23.5483 447.289 24.1501 449.968 25.3537C452.647 26.5573 454.928 28.1394 456.811 30.1001C458.713 32.0414 460.218 34.1477 461.324 36.419C462.45 38.6709 463.188 40.8646 463.537 43H461.674ZM511.846 39.2727C511.555 35.196 509.992 31.8473 507.158 29.2266C504.343 26.6058 500.626 25.2955 496.005 25.2955C492.977 25.2955 490.269 25.8778 487.881 27.0426C485.493 28.2074 483.61 29.8089 482.232 31.8473C480.854 33.8662 480.164 36.1861 480.164 38.8068C480.164 40.321 480.417 41.7188 480.922 43C481.426 44.2812 482.193 45.4557 483.222 46.5234C484.27 47.5717 485.581 48.523 487.153 49.3771C488.745 50.2119 490.609 50.9593 492.744 51.6193L499.5 53.7159C502.082 54.5118 504.314 55.4048 506.197 56.3949C508.08 57.3849 509.633 58.5012 510.856 59.7436C512.099 60.9666 513.021 62.3352 513.623 63.8494C514.224 65.3442 514.525 67.0137 514.525 68.858C514.525 71.964 513.729 74.7304 512.137 77.157C510.546 79.5836 508.323 81.486 505.469 82.8643C502.615 84.2427 499.306 84.9318 495.539 84.9318C491.909 84.9318 488.735 84.3009 486.017 83.0391C483.3 81.7578 481.145 80.0009 479.553 77.7685C477.98 75.5166 477.097 72.9347 476.903 70.0227H478.767C478.961 72.5852 479.766 74.8468 481.184 76.8075C482.601 78.7682 484.523 80.3018 486.949 81.4084C489.395 82.5149 492.259 83.0682 495.539 83.0682C498.956 83.0682 501.946 82.4761 504.508 81.2919C507.09 80.0883 509.09 78.4188 510.507 76.2834C511.943 74.148 512.662 71.6728 512.662 68.858C512.662 66.7225 512.196 64.8492 511.264 63.2379C510.332 61.6072 508.866 60.1707 506.867 58.9283C504.867 57.6858 502.256 56.5696 499.034 55.5795L492.278 53.483C487.6 52.0076 484.096 50.0566 481.766 47.63C479.456 45.2034 478.301 42.2623 478.301 38.8068C478.301 35.8755 479.068 33.2547 480.601 30.9446C482.135 28.6151 484.231 26.7805 486.891 25.441C489.57 24.1016 492.608 23.4318 496.005 23.4318C499.422 23.4318 502.421 24.1113 505.003 25.4702C507.585 26.8291 509.633 28.7024 511.147 31.0902C512.662 33.478 513.516 36.2055 513.71 39.2727H511.846Z" fill="black"/>
</svg>
